# xmcd
#
# Track frame offsets: 
#        150
#        18977
#        36319
#        55386
#        73621
#        87206
#        105253
#        122085
#        137042
#        154167
#        175927
#        194619
#
# Disc length: 3023 seconds
#
# Revision: 0
# Processed by: cddbd v1.5.2PL0 Copyright (c) Steve Scherf et al.
# Submitted via: ExactAudioCopy v1.0b4
#
DISCID=a20bcd0c
DTITLE=JW Jones - Belmont Boulevard
DYEAR=2014
DGENRE=Blues, Jump Blues
TTITLE0=Love Times Ten
TTITLE1=Watch Your Step
TTITLE2=Blue Jean Jacket
TTITLE3=Coming After Me
TTITLE4=Don't Be Ashamed
TTITLE5=Thank You
TTITLE6=Magic West Side Boogie
TTITLE7=What Would Jimmie Do ?
TTITLE8=If It Feels This Good Tomorrow
TTITLE9=What's Inside Of You
TTITLE10=Never Worth It
TTITLE11=Cocaine Boy
EXTD=
EXTT0=
EXTT1=
EXTT2=
EXTT3=
EXTT4=
EXTT5=
EXTT6=
EXTT7=
EXTT8=
EXTT9=
EXTT10=
EXTT11=
PLAYORDER=
